<svg width="20" height="20" viewBox="0 0 20 20" fill="none" xmlns="http://www.w3.org/2000/svg">
<path d="M14.7918 3.40852L12.6835 5.0252L13.4418 7.57522L11.2501 6.06688L9.05845 7.57522L9.81679 5.0252L7.70844 3.40852L10.3668 3.33352L11.2501 0.833499L12.1335 3.33352L14.7918 3.40852ZM17.7085 9.16691L16.3419 10.2086L16.8335 11.8586L15.4168 10.8836L14.0002 11.8586L14.4918 10.2086L13.1252 9.16691L14.8418 9.12524L15.4168 7.50022L15.9918 9.12524L17.7085 9.16691ZM15.8085 13.2919C16.5002 13.2253 17.2419 14.2086 16.8002 14.8336C16.5335 15.2086 16.2502 15.5586 15.9002 15.892C12.6418 19.167 7.36677 19.167 4.11674 15.892C0.858383 12.6419 0.858383 7.35856 4.11674 4.10853C4.45008 3.77519 4.80008 3.47519 5.17509 3.20852C5.80009 2.76685 6.78343 3.50852 6.71677 4.2002C6.49176 6.58355 7.29177 9.05857 9.12512 10.8836C10.9501 12.7169 13.4168 13.5169 15.8085 13.2919Z" fill="#373B40"/>
</svg>
