<svg width="23" height="23" viewBox="0 0 23 23" fill="none" xmlns="http://www.w3.org/2000/svg">
<g clip-path="url(#clip0_13_2869)">
<path d="M4.79501 13.5792C4.58926 13.6516 4.39424 13.7468 4.21295 13.8617C3.40598 13.5278 2.65013 13.0311 1.99505 12.3715C-0.665016 9.72042 -0.665016 5.4107 1.99505 2.75961C2.26718 2.4877 2.55291 2.24299 2.85906 2.02546C3.3693 1.66519 4.17208 2.27018 4.11766 2.83438C3.93397 4.77852 4.58708 6.79742 6.08379 8.28611C6.65503 8.85949 7.30328 9.30896 7.99556 9.63491C6.17791 9.93514 4.79163 11.5141 4.79163 13.4168C4.79163 13.4712 4.79277 13.5253 4.79501 13.5792Z" fill="#373B40"/>
<path d="M10.0943 5.23431L10.5991 6.90811C10.5493 6.94807 10.5003 6.98892 10.452 7.03062L8.9807 6.03225L7.27795 7.18767L7.86711 5.23431L6.2291 3.99591L8.29442 3.93846L8.9807 2.0234L9.66698 3.93846L11.7323 3.99591L10.0943 5.23431Z" fill="#373B40"/>
<path d="M15.9156 4.09805L16.9774 3.30011L15.6437 3.26819L15.197 2.02341L14.7503 3.26819L13.4166 3.30011L14.4783 4.09805L14.0964 5.36199L15.197 4.61512L16.2976 5.36199L15.9156 4.09805Z" fill="#373B40"/>
<path d="M6.70829 20.1251H19.1665C21.2836 20.1251 22.9998 18.4089 22.9998 16.2918C22.9998 14.4938 21.762 12.985 20.092 12.5709C20.1137 12.3767 20.1249 12.1793 20.1249 11.9793C20.1249 9.06832 17.765 6.70851 14.8541 6.70851C12.4396 6.70851 10.4043 8.33194 9.78026 10.5468C9.71501 10.5435 9.64934 10.5418 9.58326 10.5418C7.46619 10.5418 5.74996 12.258 5.74996 14.3751C5.74996 14.4295 5.75109 14.4837 5.75334 14.5375C4.63494 14.9312 3.83331 15.9971 3.83331 17.2501C3.83331 18.8379 5.12048 20.1251 6.70829 20.1251Z" fill="#373B40"/>
</g>
<defs>
<clipPath id="clip0_13_2869">
<rect width="22.4154" height="22.4154" fill="white" transform="scale(1.02607)"/>
</clipPath>
</defs>
</svg>
