<svg width="23" height="23" viewBox="0 0 23 23" fill="none" xmlns="http://www.w3.org/2000/svg">
<path d="M14.3838 16.292H17.2502C19.3673 16.292 21.0836 14.5757 21.0836 12.4586C21.0836 10.6606 19.8457 9.15176 18.1758 8.73775C18.1974 8.54353 18.2086 8.34612 18.2086 8.14611C18.2086 5.23509 15.8487 2.87524 12.9377 2.87524C10.5232 2.87524 8.48795 4.4987 7.86386 6.71357C7.79861 6.71027 7.73293 6.7086 7.66686 6.7086C5.54976 6.7086 3.83351 8.42485 3.83351 10.542C3.83351 10.5964 3.83464 10.6505 3.83688 10.7044C2.71847 11.0981 1.91683 12.1639 1.91683 13.417C1.91683 15.0048 3.20402 16.292 4.79185 16.292H7.52143L11.6265 9.10815C12.1141 8.25489 13.4169 8.60087 13.4169 9.58361V13.417H14.3752C15.1111 13.417 15.5724 14.2119 15.2073 14.8508L14.3838 16.292Z" fill="#373B40"/>
<path d="M8.6252 16.292L12.4586 9.58361V14.3753H14.3752L10.5419 21.0837V16.292H8.6252Z" fill="#373B40"/>
</svg>
