<svg width="18" height="18" viewBox="0 0 18 18" fill="none" xmlns="http://www.w3.org/2000/svg">
<g clip-path="url(#clip0_13_2881)">
<path d="M3.75262 9.12704C3.5916 9.18373 3.43898 9.25821 3.2971 9.34814C2.66556 9.08684 2.07402 8.69809 1.56134 8.1819C-0.520448 6.10713 -0.520448 2.7343 1.56134 0.659532C1.77432 0.446735 1.99793 0.255218 2.23753 0.084981C2.63685 -0.196975 3.26511 0.276498 3.22252 0.718051C3.07876 2.23955 3.58989 3.81956 4.76123 4.98463C5.20829 5.43336 5.71562 5.78512 6.2574 6.04021C4.8349 6.27517 3.74998 7.51086 3.74998 8.99995C3.74998 9.04253 3.75087 9.0849 3.75262 9.12704Z" fill="#373B40"/>
<path d="M7.89988 2.59626L8.29498 3.90619C8.25601 3.93746 8.21763 3.96943 8.17984 4.00207L7.02838 3.22073L5.69579 4.12498L6.15688 2.59626L4.87496 1.62707L6.49129 1.58211L7.02838 0.0833672L7.56547 1.58211L9.1818 1.62707L7.89988 2.59626Z" fill="#373B40"/>
<path d="M12.4557 1.70701L13.2867 1.08253L12.2429 1.05755L11.8933 0.0833712L11.5437 1.05755L10.4999 1.08253L11.3309 1.70701L11.0319 2.69618L11.8933 2.11167L12.7547 2.69618L12.4557 1.70701Z" fill="#373B40"/>
<path d="M14.2566 14.2499H14.9999C16.6568 14.2499 17.9999 12.9068 17.9999 11.2499C17.9999 9.84283 17.0311 8.66198 15.7242 8.33797C15.7412 8.18598 15.7499 8.03148 15.7499 7.87495C15.7499 5.59679 13.9031 3.74998 11.6249 3.74998C9.73536 3.74998 8.14254 5.02049 7.65413 6.75385C7.60307 6.75127 7.55166 6.74996 7.49996 6.74996C5.84311 6.74996 4.49997 8.0931 4.49997 9.74994C4.49997 9.79252 4.50086 9.83489 4.50262 9.87704C3.62735 10.1852 2.99998 11.0193 2.99998 11.9999C2.99998 13.2426 4.00734 14.2499 5.24997 14.2499H8.88614L12.0987 8.62785C12.4803 7.96009 13.4999 8.23085 13.4999 8.99995V11.9999H14.2499C14.8258 11.9999 15.1868 12.622 14.9011 13.122L14.2566 14.2499Z" fill="#373B40"/>
<path d="M9.74994 14.2499L12.7499 8.99995V12.7499H14.2499L11.2499 17.9999V14.2499H9.74994Z" fill="#373B40"/>
<path d="M8.66374 17.9999H7.83616L7.91892 17.0832L7.16375 17.6145L6.74996 16.8853L7.57754 16.4999L6.74996 16.1145L7.16375 15.3853L7.91892 15.9166L7.83616 14.9999H8.66374L8.58098 15.9166L9.33615 15.3853L9.74994 16.1145L8.92236 16.4999L9.74994 16.8853L9.33615 17.6145L8.58098 17.0832L8.66374 17.9999Z" fill="#373B40"/>
</g>
<defs>
<clipPath id="clip0_13_2881">
<rect width="17.7455" height="17.7455" fill="white" transform="scale(1.01434)"/>
</clipPath>
</defs>
</svg>
